<svg width="718" height="718" viewBox="0 0 718 718" fill="none" xmlns="http://www.w3.org/2000/svg">
<path d="M310.196 102.413C297.048 89.2656 279.404 82 261.067 82H82.1957C44.1381 82 13.346 113.138 13.346 151.196L13 566.37C13 604.428 44.1381 635.566 82.1957 635.566H635.762C673.819 635.566 704.957 604.428 704.957 566.37V220.391C704.957 182.334 673.819 151.196 635.762 151.196H358.979L310.196 102.413Z" fill="#5993E2"/>
<path d="M359 296.167C408.959 296.167 449.834 337.042 449.834 387C449.834 436.958 408.959 477.833 359 477.833C309.042 477.833 268.167 436.958 268.167 387C268.167 337.042 309.042 296.167 359 296.167ZM359 314.333C341.742 314.333 326.3 319.783 314.492 329.775L416.225 431.508C425.309 418.792 431.667 403.35 431.667 387C431.667 347.033 398.967 314.333 359 314.333ZM403.509 444.225L301.775 342.492C291.784 354.3 286.334 369.742 286.334 387C286.334 426.967 319.034 459.667 359 459.667C376.259 459.667 391.7 454.217 403.509 444.225Z" fill="#1E2330"/>
</svg>
