<svg width="513" height="186" viewBox="0 0 513 186" fill="none" xmlns="http://www.w3.org/2000/svg">
<path d="M110.533 41.2787V148H85.8344V104.244H37.3525V148H12.6541V41.2787H37.3525V83.3574H85.8344V41.2787H110.533ZM218.263 65.977V134.279C218.263 149.321 214.451 160.502 206.829 167.82C199.206 175.138 188.127 178.797 173.592 178.797C165.868 178.797 158.55 177.831 151.638 175.9C144.829 173.969 139.086 171.174 134.41 167.515L143.863 150.439C147.319 153.285 151.537 155.521 156.517 157.148C161.497 158.774 166.529 159.587 171.61 159.587C179.538 159.587 185.332 157.757 188.991 154.098C192.65 150.439 194.479 144.849 194.479 137.328V134.584C191.43 137.633 187.822 139.97 183.655 141.597C179.488 143.223 175.015 144.036 170.238 144.036C159.465 144.036 150.927 140.987 144.625 134.889C138.324 128.689 135.173 119.439 135.173 107.141V65.977H158.956V103.634C158.956 116.949 164.496 123.607 175.574 123.607C181.266 123.607 185.84 121.777 189.296 118.118C192.751 114.357 194.479 108.818 194.479 101.5V65.977H218.263ZM264.995 67.8066H286.035V86.1016H265.605V148H241.821V64.1475C241.821 54.7967 244.566 47.377 250.054 41.8885C255.644 36.4 263.471 33.6557 273.533 33.6557C277.09 33.6557 280.444 34.0623 283.595 34.8754C286.848 35.5869 289.541 36.6541 291.676 38.077L285.425 55.3049C282.68 53.3738 279.479 52.4082 275.82 52.4082C268.603 52.4082 264.995 56.3721 264.995 64.3V67.8066ZM473.22 149.22C464.479 149.22 456.602 147.441 449.589 143.884C442.677 140.225 437.239 135.193 433.275 128.79C429.413 122.387 427.482 115.12 427.482 106.989C427.482 98.8574 429.413 91.5902 433.275 85.1869C437.239 78.7836 442.677 73.8033 449.589 70.2459C456.602 66.5869 464.479 64.7574 473.22 64.7574C481.859 64.7574 489.38 66.5869 495.784 70.2459C502.289 73.8033 507.015 78.9361 509.962 85.6443L491.515 95.5541C487.246 88.0328 481.097 84.2721 473.067 84.2721C466.867 84.2721 461.734 86.3049 457.669 90.3705C453.603 94.4361 451.57 99.9754 451.57 106.989C451.57 114.002 453.603 119.541 457.669 123.607C461.734 127.672 466.867 129.705 473.067 129.705C481.198 129.705 487.348 125.944 491.515 118.423L509.962 128.485C507.015 134.99 502.289 140.072 495.784 143.731C489.38 147.39 481.859 149.22 473.22 149.22Z" fill="#EEF3FB"/>
<g clip-path="url(#clip0_172_3)">
<path d="M409.405 85.4589C409.149 84.8184 408.692 84.2662 408.093 83.8763C407.495 83.4864 406.784 83.2773 406.055 83.2769H362.94L387.809 37.8869C388.091 37.3758 388.228 36.8052 388.206 36.2302C388.184 35.6551 388.005 35.095 387.686 34.6038C387.366 34.1127 386.918 33.7071 386.383 33.4262C385.848 33.1452 385.244 32.9985 384.631 33C383.775 33.0003 382.948 33.2894 382.3 33.8145L356.066 55.0816L303.746 97.4986C303.194 97.9453 302.802 98.5397 302.621 99.202C302.439 99.8642 302.478 100.563 302.732 101.204C302.986 101.844 303.442 102.397 304.04 102.788C304.638 103.178 305.349 103.387 306.077 103.388H349.193L324.323 148.778C324.042 149.289 323.905 149.859 323.927 150.434C323.948 151.009 324.128 151.57 324.447 152.061C324.766 152.552 325.215 152.957 325.75 153.238C326.285 153.519 326.888 153.666 327.501 153.665C328.357 153.664 329.185 153.375 329.833 152.85L356.066 131.583L408.387 89.166C408.939 88.7195 409.333 88.125 409.515 87.4623C409.697 86.7995 409.658 86.1005 409.405 85.4589V85.4589Z" fill="#EEF3FB"/>
</g>
<defs>
<clipPath id="clip0_172_3">
<rect width="128.543" height="120.665" fill="white" transform="translate(291.795 33)"/>
</clipPath>
</defs>
</svg>
