<svg width="236" height="236" viewBox="0 0 236 236" fill="none" xmlns="http://www.w3.org/2000/svg">
<path d="M101.958 33.6621C97.6371 29.3408 91.8373 26.9526 85.8102 26.9526H27.0169C14.5077 26.9526 4.38667 37.1874 4.38667 49.6966L4.27295 186.161C4.27295 198.67 14.5077 208.905 27.0169 208.905H208.969C221.478 208.905 231.713 198.67 231.713 186.161V72.4406C231.713 59.9314 221.478 49.6966 208.969 49.6966H117.993L101.958 33.6621Z" fill="#5993E2"/>
<g clip-path="url(#clip0_187_113)">
<path d="M143.663 125.037C143.54 124.729 143.32 124.464 143.033 124.276C142.745 124.089 142.403 123.988 142.052 123.988H121.318L133.278 102.16C133.413 101.914 133.479 101.64 133.469 101.363C133.458 101.086 133.372 100.817 133.218 100.581C133.065 100.345 132.849 100.15 132.592 100.015C132.334 99.8794 132.044 99.8088 131.75 99.8096C131.338 99.8097 130.94 99.9487 130.628 100.201L118.013 110.429L92.8515 130.827C92.5863 131.042 92.3975 131.328 92.3103 131.646C92.2232 131.965 92.2419 132.301 92.3639 132.609C92.4859 132.917 92.7055 133.183 92.993 133.371C93.2806 133.558 93.6225 133.659 93.9728 133.659H114.707L102.747 155.487C102.612 155.733 102.546 156.008 102.557 156.284C102.567 156.561 102.653 156.83 102.807 157.066C102.96 157.303 103.176 157.498 103.433 157.633C103.691 157.768 103.981 157.838 104.276 157.838C104.687 157.837 105.085 157.698 105.397 157.446L118.013 147.218L143.174 126.82C143.439 126.605 143.629 126.319 143.716 126.001C143.804 125.682 143.785 125.346 143.663 125.037Z" fill="#2A3146"/>
</g>
<defs>
<clipPath id="clip0_187_113">
<rect width="61.8168" height="58.028" fill="white" transform="translate(87.1042 99.8101)"/>
</clipPath>
</defs>
</svg>
