<svg width="718" height="718" viewBox="0 0 718 718" fill="none" xmlns="http://www.w3.org/2000/svg">
<path d="M310.196 102.413C297.048 89.2656 279.404 82 261.067 82H82.1957C44.1381 82 13.346 113.138 13.346 151.196L13 566.37C13 604.428 44.1381 635.566 82.1957 635.566H635.762C673.819 635.566 704.957 604.428 704.957 566.37V220.391C704.957 182.334 673.819 151.196 635.762 151.196H358.979L310.196 102.413Z" fill="#5993E2"/>
<g clip-path="url(#clip0_106_20)">
<path d="M437.076 380.41C436.703 379.473 436.034 378.665 435.158 378.095C434.282 377.524 433.242 377.218 432.176 377.218H369.094L405.481 310.808C405.893 310.06 406.093 309.226 406.061 308.384C406.029 307.543 405.767 306.723 405.3 306.005C404.833 305.286 404.176 304.693 403.393 304.282C402.61 303.871 401.728 303.656 400.831 303.658C399.579 303.659 398.368 304.082 397.42 304.85L359.038 335.966L282.488 398.025C281.682 398.679 281.107 399.549 280.842 400.518C280.577 401.486 280.634 402.508 281.005 403.446C281.376 404.384 282.044 405.192 282.919 405.764C283.794 406.335 284.834 406.641 285.9 406.642H348.981L312.595 473.051C312.183 473.799 311.983 474.634 312.015 475.475C312.047 476.316 312.309 477.136 312.776 477.855C313.243 478.573 313.9 479.167 314.683 479.578C315.465 479.989 316.348 480.203 317.245 480.201C318.497 480.201 319.708 479.778 320.656 479.009L359.038 447.894L435.588 385.834C436.396 385.181 436.972 384.311 437.238 383.341C437.504 382.372 437.448 381.349 437.076 380.41V380.41Z" fill="#0D1117"/>
</g>
<defs>
<clipPath id="clip0_106_20">
<rect width="188.07" height="176.543" fill="white" transform="translate(265.004 303.659)"/>
</clipPath>
</defs>
</svg>
